<?xml version="1.0" standalone="no"?>
<!DOCTYPE svg PUBLIC "-//W3C//DTD SVG 20010904//EN"
 "http://www.w3.org/TR/2001/REC-SVG-20010904/DTD/svg10.dtd">
<svg version="1.0" xmlns="http://www.w3.org/2000/svg"
 width="16.000000pt" height="16.000000pt" viewBox="0 0 16.000000 16.000000"
 preserveAspectRatio="xMidYMid meet">
<metadata>
Created by potrace 1.11, written by Peter Selinger 2001-2013
</metadata>
<g transform="translate(0.000000,16.000000) scale(0.006250,-0.006250)"
fill="#000000" stroke="none">
<path d="M1120 1934 c-85 -24 -164 -46 -175 -48 -43 -11 -240 -65 -240 -66 0
-1 -7 -3 -15 -5 -8 -1 -35 -8 -60 -15 -25 -7 -52 -14 -60 -15 -8 -2 -15 -4
-15 -5 0 -1 -7 -3 -15 -5 -8 -1 -35 -8 -60 -15 -25 -7 -52 -14 -60 -15 -8 -2
-16 -4 -17 -5 -3 -3 -6 -3 -48 -14 -41 -11 -275 -75 -299 -82 -10 -3 -14 -10
-10 -14 5 -4 91 -49 191 -99 l181 -91 -3 -42 c-2 -24 -7 -88 -11 -143 -10
-150 -11 -163 -19 -253 -6 -79 -5 -85 15 -104 33 -31 106 -35 148 -8 l33 21
-6 77 c-10 115 -13 158 -20 257 -3 50 -8 98 -11 108 -3 9 -1 17 4 17 5 0 175
-83 378 -184 274 -138 372 -182 381 -174 7 6 13 7 13 2 0 -5 4 -4 8 2 4 6 275
144 602 308 327 164 599 301 603 306 9 8 -43 25 -181 61 -40 10 -103 27 -140
37 -98 28 -259 72 -279 77 -10 2 -58 15 -108 29 -49 15 -103 28 -119 31 -16 3
-33 8 -38 11 -4 3 -16 7 -25 9 -10 2 -85 22 -168 45 -82 23 -161 43 -175 45
-14 1 -95 -17 -180 -41z m261 -286 c7 -14 6 -23 -7 -36 -14 -13 -37 -17 -108
-18 -52 -1 -117 -9 -151 -18 -117 -33 -281 -78 -375 -103 -52 -13 -99 -26
-105 -27 -5 -2 -38 -11 -73 -21 l-63 -19 6 -100 c4 -56 8 -120 10 -143 2 -23
7 -84 10 -137 6 -88 5 -95 -14 -105 -27 -15 -50 -14 -67 4 -16 15 -16 20 1
250 3 33 7 100 10 149 3 49 8 92 11 95 4 5 92 32 144 45 8 2 35 9 60 16 25 7
52 14 60 16 83 20 286 76 329 90 24 8 46 13 48 10 2 -2 16 2 30 9 15 8 30 12
35 9 4 -3 12 6 17 19 22 56 164 67 192 15z"/>
<path d="M706 1242 c-5 -16 -10 -45 -21 -142 -5 -45 -13 -100 -21 -155 -4 -26
3 -37 63 -92 37 -35 93 -80 123 -101 30 -20 57 -40 60 -43 12 -14 160 -77 219
-93 96 -27 263 -24 338 5 15 6 36 12 46 14 33 7 158 74 220 119 34 24 90 70
125 103 54 52 62 64 58 89 -5 36 -15 107 -21 159 -21 172 -12 162 -108 113
-45 -23 -85 -41 -89 -40 -3 1 -12 -5 -18 -13 -7 -8 -20 -15 -30 -15 -10 0 -23
-7 -30 -15 -7 -8 -16 -13 -20 -10 -5 3 -11 1 -14 -3 -3 -5 -71 -42 -151 -81
l-146 -72 -147 73 c-81 40 -153 79 -160 85 -7 7 -18 13 -23 13 -5 0 -63 27
-129 59 -102 51 -120 57 -124 43z"/>
</g>
</svg>
